<svg width="48" height="48" viewBox="0 0 48 48" fill="none" xmlns="http://www.w3.org/2000/svg">
<path fill-rule="evenodd" clip-rule="evenodd" d="M0 24C0 37.2548 10.7452 48 24 48C37.2548 48 48 37.2548 48 24C48 10.7452 37.2548 0 24 0C10.7452 0 0 10.7452 0 24ZM25.2303 28.2602C25.0599 28.2602 24.932 28.1324 24.9604 27.9478L26.5657 18.4055C26.5799 18.2777 26.7077 18.1783 26.8214 18.1783H27.0487C27.1197 18.1783 27.2475 18.2351 27.2902 18.3203L30.5859 24.4546H30.6143L33.9101 18.3203C33.9527 18.2351 34.0805 18.1783 34.1516 18.1783H34.3788C34.4925 18.1783 34.6203 18.2777 34.6345 18.4055L36.2398 27.9478C36.2682 28.1324 36.1404 28.2602 35.9699 28.2602H34.2936C34.1658 28.2602 34.0379 28.1466 34.0237 28.033L33.3844 23.6452H33.356L30.9695 28.246C30.9268 28.3312 30.799 28.4022 30.728 28.4022H30.4723C30.387 28.4022 30.2734 28.3312 30.2308 28.246L27.83 23.6452H27.8016L27.1765 28.033C27.1623 28.1466 27.0487 28.2602 26.9066 28.2602H25.2303ZM24.0675 15.0205L21.2601 31.3477C21.2186 31.5892 21.3808 31.8187 21.6224 31.8602C21.864 31.9017 22.0936 31.7395 22.1351 31.498L24.9425 15.1709C24.984 14.9293 24.8218 14.6999 24.5802 14.6584C24.3386 14.6169 24.109 14.779 24.0675 15.0205ZM15.4432 28.4022C12.6021 28.4022 10.3434 26.1444 10.3434 23.3044C10.3434 20.4644 12.6021 18.1783 15.4432 18.1783C18.2844 18.1783 20.5573 20.4644 20.5573 23.3044C20.5573 26.1444 18.2844 28.4022 15.4432 28.4022Z" fill="#333333"/>
<path d="M12.5729 23.3993C12.5729 24.9471 13.8515 26.2251 15.3999 26.2251C16.9625 26.2251 18.241 24.9471 18.241 23.3993C18.241 21.8373 16.9625 20.5451 15.3999 20.5451C13.8515 20.5451 12.5729 21.8373 12.5729 23.3993Z" fill="#333333"/>
</svg>
