<svg width="50" height="17" viewBox="0 0 50 17" fill="none" xmlns="http://www.w3.org/2000/svg">
<path d="M2.62593 10.3778C2.62593 13.0409 4.3558 14.7614 6.64671 14.7614C8.91424 14.7614 10.6675 12.9938 10.6675 10.3778V0.196411H13.122V16.694H10.6909V15.162C9.59216 16.3169 8.07268 16.9768 6.36619 16.9768C2.8597 16.9768 0.171387 14.4079 0.171387 10.5192V0.196411H2.62593V10.3778ZM15.5298 16.694V0.196411H17.8909V6.20623C18.4415 5.63764 19.0997 5.18616 19.8265 4.8785C20.5532 4.57084 21.3338 4.41326 22.122 4.41507C25.6285 4.41507 28.387 7.21965 28.387 10.7077C28.387 14.1722 25.6285 16.9768 22.122 16.9768C20.4623 16.9768 18.9428 16.2933 17.8675 15.1856V16.694H15.5298ZM17.8441 10.7077C17.8441 13.0174 19.6675 14.8792 21.9584 14.8792C24.2026 14.8792 26.0493 13.0174 26.0493 10.7077C26.0493 8.37448 24.2026 6.53618 21.9584 6.53618C19.6909 6.53618 17.8441 8.37448 17.8441 10.7077ZM29.7896 10.6841C29.7896 7.29036 32.4311 4.43864 35.9142 4.43864C39.3506 4.43864 41.8753 7.10181 41.8753 10.6841V11.4619H32.174C32.5013 13.418 34.1142 14.8792 36.1246 14.8792C37.5038 14.8792 38.6727 14.3136 39.561 13.1116L41.2675 14.3843C40.0753 15.9869 38.2987 16.9532 36.1246 16.9532C32.548 16.9532 29.7896 14.2665 29.7896 10.6841ZM35.8675 6.51261C34.1142 6.51261 32.6415 7.73815 32.2207 9.57644H39.4909C39.0935 7.73815 37.6207 6.51261 35.8675 6.51261ZM49.7298 6.79543H48.748C47.2051 6.79543 46.0831 7.99739 46.0831 9.85926V16.694H43.722V4.67432H46.0597V6.15909C46.6441 5.19281 47.6026 4.58004 48.9116 4.58004H49.7298V6.79543Z" fill="white"/>
</svg>
